<?xml version="1.0" encoding="utf-8" standalone="yes"?>
<!DOCTYPE svg PUBLIC "-//W3C//DTD SVG 1.1//EN" "http://www.w3.org/Graphics/SVG/1.1/DTD/svg11.dtd">
<svg
   xmlns:svg="http://www.w3.org/2000/svg"
   xmlns="http://www.w3.org/2000/svg"
   version="1.0"
   width="526.36401"
   height="477.03693"
>
<!--
  Originally based on:
    http://commons.wikimedia.org/wiki/File:Penrose-dreieck.svg
    By Tobias R. – Metoc (Own work) [CC BY-SA 2.5 (http://creativecommons.org/licenses/by-sa/2.5)], via Wikimedia Commons
-->
  <defs
     id="defs4" />
  <g
     transform="translate(-91.423882,-253.5866)"
     id="layer1">
    <path
       d="M 312.32408,254.29303 L 497.87767,584.55178 L 291.61277,584.66663 L 252.04899,655.38029 L 617.26698,655.43727 L 394.46457,254.0866 L 312.32408,254.29303 z "
       style="fill:#ccc;fill-opacity:1;fill-rule:evenodd;stroke:#000000;stroke-width:0px;stroke-linecap:butt;stroke-linejoin:round;stroke-opacity:1"
       id="path3214" />
    <path
       d="M 315.20979,396.83568 L 355.50104,471.05493 L 251.87272,655.43409 L 617.28788,655.62366 L 578.81741,730.12352 L 132.3464,728.07665 L 315.20979,396.83568 z "
       style="fill:#333;fill-opacity:1;fill-rule:evenodd;stroke:#000000;stroke-width:0;stroke-linecap:butt;stroke-linejoin:round;stroke-opacity:1"
       id="path5156" />

<!--     <path
       d="M 220,540 L 440,540 L 410,470 L 220,470 z "
       style="fill:#777;fill-opacity:1;fill-rule:evenodd;stroke:#000000;stroke-width:0px;stroke-linecap:butt;stroke-linejoin:round;stroke-opacity:1"
       id="path5156" /> -->
<!--     <path
       d="M 220,530 L 440,530 L 410,470 L 220,470 z "
       style="fill:#777;fill-opacity:1;fill-rule:evenodd;stroke:#000000;stroke-width:0px;stroke-linecap:butt;stroke-linejoin:round;stroke-opacity:1"
       id="path5156" /> -->
    <path
       d="M 267,530 L 440,530 L 410,470 L 300,470 z "
       style="fill:#777;fill-opacity:1;fill-rule:evenodd;stroke:#000000;stroke-width:0px;stroke-linecap:butt;stroke-linejoin:round;stroke-opacity:1"
       id="path5156" />
<!--     <path
       d="M 280,530 L 440,530 L 410,470 L 312,470 z "
       style="fill:#777;fill-opacity:1;fill-rule:evenodd;stroke:#000000;stroke-width:0px;stroke-linecap:butt;stroke-linejoin:round;stroke-opacity:1"
       id="path5156" /> -->

<!--     <path
       d="M 250,555 L 440,555 L 410,500 L 280,500 z "
       style="fill:#777;fill-opacity:1;fill-rule:evenodd;stroke:#000000;stroke-width:0px;stroke-linecap:butt;stroke-linejoin:round;stroke-opacity:1"
       id="path5156" /> -->
<!--  <path
       d="M 220,555 L 440,555 L 410,500 L 250,500 z "
       style="fill:#777;fill-opacity:1;fill-rule:evenodd;stroke:#000000;stroke-width:0px;stroke-linecap:butt;stroke-linejoin:round;stroke-opacity:1"
       id="path5156" /> -->
<!--     <path
       d="M 270,555 L 440,555 L 410,500 L 300,500 z "
       style="fill:#777;fill-opacity:1;fill-rule:evenodd;stroke:#000000;stroke-width:0px;stroke-linecap:butt;stroke-linejoin:round;stroke-opacity:1"
       id="path5156" /> -->

    <path
       d="M 312.31392,254.26591 L 91.923882,655.37223 L 132.32998,728.10322 L 315.16759,396.77318 L 417.193,584.66155 L 498.0052,584.66155 L 312.31392,254.26591 z "
       style="fill:#888;fill-opacity:1;fill-rule:evenodd;stroke:#000000;stroke-width:0px;stroke-linecap:butt;stroke-linejoin:round;stroke-opacity:1"
       id="path4185" />
<!--     <path
       d="M 236,540 L 472,540 L 433,470 L 275,470 z "
       style="fill:#777;fill-opacity:1;fill-rule:evenodd;stroke:#000000;stroke-width:0px;stroke-linecap:butt;stroke-linejoin:round;stroke-opacity:1"
       id="path5156" /> -->
<!--     <path
       d="M 270,555 L 440,555 L 420,520 L 290,520 z "
       style="fill:#7d7e7c;fill-opacity:1;fill-rule:evenodd;stroke:#000000;stroke-width:0px;stroke-linecap:butt;stroke-linejoin:round;stroke-opacity:1"
       id="path5156" /> -->
  </g>
</svg>
